<svg xmlns="http://www.w3.org/2000/svg" viewBox="0 0 653 201.44"><defs><style>.cls-1{font-size:13.02px;letter-spacing:-0.01em;}.cls-1,.cls-2,.cls-3{font-family:SFProDisplay-Heavy, SF Pro Display;font-weight:800;}.cls-2{font-size:27.35px;letter-spacing:-0.01em;}.cls-3{font-size:63.77px;letter-spacing:-0.02em;}.cls-4{letter-spacing:-0.01em;}.cls-5{font-size:25.89px;font-family:SFProDisplay-Semibold, SF Pro Display;font-weight:600;letter-spacing:-0.01em;}.cls-6{letter-spacing:-0.02em;}.cls-7{letter-spacing:-0.01em;}.cls-8{letter-spacing:-0.06em;}.cls-9{letter-spacing:-0.01em;}.cls-10{letter-spacing:-0.01em;}.cls-11{letter-spacing:-0.01em;}</style></defs><g id="Layer_2" data-name="Layer 2"><g id="Layer_1-2" data-name="Layer 1"><g id="Landscape"><path d="M90.68,124.82a10.1,10.1,0,0,0,11.79-8s0-.08,0-.12l-2.77-.56-14-2.83L83,112.71s0,.08,0,.11A10.09,10.09,0,0,0,90.68,124.82Z"/><path d="M123.35,120.88s0,.06,0,.08c-3.51,17.36-20.07,28.65-37,25.23S58.59,125.93,62.1,108.57a.24.24,0,0,1,0-.08L9.89,97.92V98C.37,145,29.76,190.53,75.51,199.79s90.54-21.3,100-68.26l0-.08Zm-2.55,64.74a73.11,73.11,0,0,1-6.91,2.68,70.39,70.39,0,0,1-7.14,1.95q-1.8.39-3.63.69c-1.22.2-2.44.36-3.66.5a71.43,71.43,0,0,1-42.77-8.65c-1.08-.61-2.14-1.23-3.19-1.89s-2.06-1.34-3.07-2.05a71.47,71.47,0,0,1-5.83-4.57,73.86,73.86,0,0,1-5.31-5.16,70.32,70.32,0,0,1-8.89-11.84,80.51,80.51,0,0,0,9.44,11.28c1.73,1.72,3.55,3.36,5.43,4.89s3.83,3,5.85,4.34c1,.67,2,1.32,3.08,1.94s2.09,1.22,3.15,1.8c2.13,1.14,4.32,2.18,6.55,3.1a74.45,74.45,0,0,0,28.19,5.71c2.42,0,4.83-.09,7.24-.31,1.21-.12,2.41-.26,3.61-.43s2.39-.37,3.58-.59c2.39-.46,4.75-1,7.08-1.72s4.64-1.49,6.91-2.4a81.2,81.2,0,0,0,13.08-6.72A71,71,0,0,1,120.8,185.62Zm-1.57-4-.39.19-.4.17-.81.33L116,183l-.41.17-.41.15-.82.29-1.65.58c-.28.1-.55.2-.83.27l-2.52.74c-.56.17-1.13.29-1.7.43l-1.7.4-.42.1c-.14,0-.29.06-.43.09l-.86.15-1.72.32-.43.08-.43.06-.87.11-1.73.23-.43.05-.44,0-.87.07-1.74.14-.43,0h-.44l-.87,0-1.75,0a69.51,69.51,0,0,1-13.87-1.33A68.79,68.79,0,0,1,65,182.1l-1.59-.72-.8-.37-.39-.18-.39-.19-1.55-.81-.78-.4-.38-.2-.38-.22-1.51-.88-.76-.44-.37-.22-.37-.24-1.46-1-.73-.48-.36-.24-.35-.26-1.41-1c-.47-.35-.95-.67-1.4-1.05l-1.35-1.1-.68-.56c-.23-.18-.44-.38-.66-.57L46,169.79l-.65-.59c-.1-.1-.22-.19-.32-.3l-.31-.31-1.23-1.24-.62-.62-.31-.31-.29-.33a67.34,67.34,0,0,1-8.38-11.19,76.7,76.7,0,0,0,8.94,10.63l.3.31.32.29.63.59,1.26,1.18.31.3.33.28.66.55L48,170.14c.43.38.9.71,1.35,1.07l1.36,1c.45.37.93.67,1.4,1l1.41,1,.36.24a2.74,2.74,0,0,0,.36.23l.73.46,1.45.9.37.23.37.21.75.42,1.49.83.38.21.38.19.76.38,1.54.76a2.69,2.69,0,0,0,.38.19l.39.17L64,180l1.56.69a70.37,70.37,0,0,0,26.6,5.39l1.71,0h1.28l.42,0,1.71-.1.85-.06.43,0,.43,0,1.7-.19.85-.09.43-.05.42-.07,1.69-.27.85-.13.42-.07.42-.09,1.68-.35c.56-.12,1.13-.22,1.68-.38l1.66-.43c.56-.15,1.12-.27,1.66-.46l1.65-.51.82-.25.41-.13.41-.15,1.62-.6.81-.29.4-.15.4-.17a77.51,77.51,0,0,0,12.37-6.32A66.89,66.89,0,0,1,119.23,181.67Zm-1.56-3.94-.37.18-.38.15-.76.32-1.52.62-.39.16-.38.14-.78.28-1.55.54a7.92,7.92,0,0,1-.78.26l-.79.24-1.58.46c-.53.16-1.06.27-1.59.4l-1.61.38-.4.1-.4.08-2.43.45-.4.07c-.13,0-.27,0-.41.06l-.81.1-1.63.22-.41.05-.41,0-.82.07-1.64.13-.41,0-.41,0-.82,0-1.64.05a63,63,0,0,1-25.58-5.18l-1.49-.68-.75-.34L64,177l-.37-.19L62.13,176l-.73-.38-.36-.19-.36-.21-1.42-.83-.71-.41-.35-.21-.34-.23-1.38-.9-.68-.46-.34-.22-.34-.25-1.32-1c-.44-.33-.9-.64-1.31-1l-1.28-1c-.42-.36-.86-.69-1.26-1.07l-1.21-1.11-.61-.55-.3-.28-.29-.29-1.16-1.18-.58-.58-.29-.29-.27-.31a61.87,61.87,0,0,1-7.87-10.55,72.76,72.76,0,0,0,8.42,10l.29.3.29.27.6.56,1.19,1.1.29.28.31.26.62.52,1.24,1.05c.41.36.85.66,1.27,1l1.29,1c.42.34.87.63,1.31.94l1.33.92.33.22.34.22.69.42,1.37.85.34.21.35.2.7.4,1.41.78.35.2.36.18.72.36,1.44.71.36.18.37.16.74.32,1.47.64a65.93,65.93,0,0,0,25,5.06l1.61,0H95l.4,0,1.61-.1.8,0,.4,0,.4,0,1.6-.18.8-.09.4,0,.4-.06,1.59-.25.8-.13.4-.06.39-.08,1.59-.33c.52-.12,1-.21,1.57-.36l1.57-.4c.52-.15,1-.26,1.56-.43l1.55-.48.77-.24.39-.12.38-.14,1.52-.56.76-.28.38-.14.38-.15A73.65,73.65,0,0,0,129,171.08,62.92,62.92,0,0,1,117.67,177.73Zm-13.25,0-.38.09-.38.07-.76.14-1.51.29-.38.07-.38,0-.77.1-1.53.2-.38.05-.38,0-.77.06-1.54.12c-.25,0-.51,0-.77,0l-.77,0-1.54.05a60.59,60.59,0,0,1-12.24-1.17,61.27,61.27,0,0,1-11.74-3.68l-1.4-.64-.7-.33c-.23-.1-.47-.21-.69-.33L64,172.2l-.69-.36-.34-.17-.33-.2-1.33-.78-.67-.38-.33-.2L60,169.9l-1.29-.85-.64-.43-.32-.21-.31-.23a58.65,58.65,0,0,1-16.61-18,67.38,67.38,0,0,0,7.91,9.33l.26.27.28.26.56.52,1.11,1,.28.26a3.47,3.47,0,0,0,.29.25l.58.49,1.16,1c.38.34.8.62,1.2.94l1.2.92c.39.31.82.58,1.23.87l1.25.86.31.22.32.2.64.39,1.28.8.32.2.33.18.66.37,1.31.73.34.19.33.16.68.34,1.34.67.69.31.69.3,1.38.61a60.52,60.52,0,0,0,11.47,3.5,61.33,61.33,0,0,0,11.94,1.24l1.5,0h.75a6.44,6.44,0,0,0,.76,0l1.5-.09.75,0,.38,0,.37,0,1.5-.16.75-.09.37,0,.37-.06,1.5-.23.74-.12a2.5,2.5,0,0,0,.38-.06l.37-.07,1.48-.31c.49-.11,1-.19,1.47-.33l1.47-.38c.49-.13,1-.23,1.46-.39l1.45-.45.73-.22.36-.12.35-.13,1.43-.52.72-.26.36-.13.35-.15a67.69,67.69,0,0,0,10.91-5.52A58.6,58.6,0,0,1,104.42,177.68Zm-.78-4.19-.35.08-.36.07-.7.14-1.42.26-.35.07-.36,0-.71.09-1.43.19-.36,0-.35,0-.72.06-1.44.12c-.24,0-.47,0-.72,0l-.71,0-1.44,0a55,55,0,0,1-22.39-4.53l-1.31-.6-.65-.3-.65-.31-1.28-.67-.63-.33-.32-.17-.31-.18L63.43,167l-.62-.37-.31-.18-.3-.2-1.2-.79-.6-.4-.29-.2-.29-.22a54.33,54.33,0,0,1-15.48-16.85,64.21,64.21,0,0,0,7.4,8.68l.25.26.26.24.52.48,1,1c.34.33.71.62,1.07.93l1.09.91c.35.31.74.57,1.11.87l1.12.85c.37.3.77.55,1.15.82l1.16.8.29.2.3.18.6.37,1.2.74.3.19.3.17.62.34,1.22.69.31.17.31.15.63.31,1.26.63.64.29.64.28,1.29.56a58,58,0,0,0,21.81,4.41h2.11c.23,0,.46,0,.7,0l1.4-.09.7,0,.35,0,.35,0,1.39-.15.7-.08.35,0,.35-.05,1.39-.21.69-.11.35-.06.35-.07,1.38-.28c.46-.1.92-.18,1.37-.31l1.37-.35c.45-.13.92-.22,1.36-.37l1.36-.41c.45-.15.9-.26,1.34-.44l1.34-.48.66-.24.34-.12.32-.14a64.06,64.06,0,0,0,10.2-5.13A54.46,54.46,0,0,1,103.64,173.49Zm-.78-4.19a51.31,51.31,0,0,1-21.23.21l-2.6-.6-2.57-.73c-.84-.29-1.69-.57-2.52-.87l-1.25-.49c-.41-.17-.83-.32-1.23-.51l-1.22-.56-.6-.28a5.55,5.55,0,0,1-.6-.29l-1.19-.61-.59-.31-.3-.16-.29-.17-1.15-.67-.58-.34-.28-.17-.28-.19-1.12-.74c-.36-.25-.75-.48-1.1-.75a50.21,50.21,0,0,1-14.33-15.68,60.92,60.92,0,0,0,6.88,8l.23.23.24.23.49.44,1,.9c.32.3.67.57,1,.85l1,.84c.33.29.69.54,1,.8l1,.8c.34.27.71.5,1.07.75l1.08.74a53.91,53.91,0,0,0,39.77,8.05l1.28-.26c.42-.09.85-.16,1.28-.28l1.26-.33c.42-.11.85-.19,1.27-.33l1.25-.39c.42-.13.84-.24,1.25-.39l1.24-.45.62-.22.31-.12.3-.12a59,59,0,0,0,9.47-4.74A50.28,50.28,0,0,1,102.86,169.3Zm-.78-4.18a47.08,47.08,0,0,1-19.6.2l-2.4-.56-2.37-.67c-.78-.27-1.56-.52-2.34-.8l-1.14-.46c-.38-.15-.77-.29-1.14-.47L72,161.85l-.56-.26c-.19-.09-.38-.17-.56-.27l-1.09-.57-.55-.29-.27-.14-.27-.16-1.06-.62-.54-.31-.26-.16-.26-.17-1-.69c-.34-.23-.69-.44-1-.7A46,46,0,0,1,51.31,143a55.8,55.8,0,0,0,6.37,7.4l.22.21.22.21.45.41.89.82c.29.28.61.52.92.78l.93.77c.3.27.64.5.95.74l1,.73c.31.25.65.47,1,.7l1,.68a50,50,0,0,0,36.65,7.42l1.18-.24c.39-.09.79-.15,1.18-.26l1.16-.3c.39-.1.79-.18,1.17-.31l1.16-.35c.38-.12.78-.22,1.15-.36l1.14-.41.57-.21.29-.1.28-.11a56.43,56.43,0,0,0,8.74-4.34A46,46,0,0,1,102.08,165.12Zm-1-5.43a49.41,49.41,0,0,0,16.52-6.35,42,42,0,0,1-16.29,7.59,43,43,0,0,1-34.45-7,42,42,0,0,1-12-13.33A49.2,49.2,0,0,0,67.55,152.9a45.81,45.81,0,0,0,33.52,6.79Z"/><path d="M184.15,136.58,0,99.3,9.08,54.46,193.22,91.73ZM4,96.63l177.43,35.91,7.72-38.13L11.75,58.49Z"/><rect x="37.38" y="36.99" width="2.4" height="40.24" transform="translate(-25.05 83.59) rotate(-78.56)"/><rect x="163.81" y="62.58" width="2.4" height="40.24" transform="translate(51.22 228.03) rotate(-78.56)"/><polygon points="106.4 55.05 104.54 54.68 102.66 64.14 104.58 64.53 106.4 55.05"/><polygon points="107.17 65.05 109.02 65.43 110.74 55.93 108.95 55.57 107.17 65.05"/><polygon points="99.76 64.72 97.84 74.17 97.84 74.18 95.1 73.63 95.1 73.62 97.04 64.17 99.76 64.72"/><polygon points="97.27 63.05 99.98 63.6 101.9 54.14 99.22 53.6 97.27 63.05"/><polygon points="100.33 74.67 100.33 74.68 98.06 74.23 99.98 64.77 102.21 65.22 100.33 74.67"/><polygon points="102.12 54.19 100.2 63.64 102.44 64.09 104.32 54.63 102.12 54.19"/><polygon points="102.54 75.12 102.54 75.13 100.55 74.73 100.56 74.72 102.44 65.27 104.36 65.66 102.54 75.12"/><polygon points="107.1 76.05 107.1 76.05 105.19 75.67 105.19 75.66 106.96 66.18 108.81 66.56 107.1 76.05"/><polygon points="108.74 76.38 107.32 76.09 109.04 66.6 109.99 66.79 110.21 65.67 109.24 65.47 110.96 55.98 112.3 56.25 108.74 76.38"/><polygon points="96.03 62.8 95.8 63.92 96.82 64.13 94.87 73.57 93.29 73.25 97.37 53.22 99 53.55 97.05 63 96.03 62.8"/><polygon points="108.73 55.52 106.63 55.1 104.8 64.57 106.95 65.01 108.73 55.52"/><polygon points="104.96 75.61 104.96 75.62 102.76 75.18 102.76 75.17 104.58 65.7 106.74 66.14 104.96 75.61"/><path d="M102.91,38.42a2.27,2.27,0,0,1-1.78.66l-1.45,12-.06.57-.17.79-.13.68,2.67.54.3-1.46,0-.58Z"/><path d="M114.05,40.73,109.52,53.1l-.21.57-.14.77-.13.68,1.78.36.12-.68.14-.79.19-.55,4-11.53A2.31,2.31,0,0,1,114.05,40.73Z"/><path d="M128,20.58a1.73,1.73,0,0,0,1.39,1.62l.25.05a1.74,1.74,0,0,0,2-1.36l.42-2.1a1.74,1.74,0,0,0-1.36-2.05l-.24,0a1.76,1.76,0,0,0-1.78.71l-2.89-.58,2-9.71a1.26,1.26,0,0,0-.62-1.33c-3.63-1.95-7-4.64-11-5.47s-8.48.31-12.74.68a1.22,1.22,0,0,0-1.1,1l-1.92,9.48-3-.61a1.73,1.73,0,0,0-1.36-1.35l-.24-.05a1.74,1.74,0,0,0-2,1.36l-.43,2.11a1.74,1.74,0,0,0,1.36,2L95,15a1.73,1.73,0,0,0,1.91-1l2.92.59-1.68,8.29-3-.6A1.75,1.75,0,0,0,93.75,21l-.24,0a1.75,1.75,0,0,0-2.06,1.36L91,24.38a1.74,1.74,0,0,0,1.36,2.05l.24.05a1.75,1.75,0,0,0,1.92-.95l2.91.59-1.67,8.29-3-.61a1.73,1.73,0,0,0-1.36-1.35l-.24-.05a1.74,1.74,0,0,0-2.05,1.36l-.43,2.1a1.75,1.75,0,0,0,1.36,2.06l.25,0a1.74,1.74,0,0,0,1.91-1l2.92.59-.67,3.32a5.13,5.13,0,0,1,4,6.06l-1.16,5.77,1.76.35.14-.67.16-.79.07-.57,1.44-12h-.07a2.3,2.3,0,1,1,2.22-3.73l.35-7.72a2,2,0,0,1-.24,0,2.3,2.3,0,1,1,.91-4.51,2.34,2.34,0,0,1,1.46,1l.23-7.93a1.45,1.45,0,0,1-.28,0,2.28,2.28,0,1,1,.51.05l-.24,8.33h0l-.06,1.83h0l-.75,25.89,0,.56-.15.81-.14.67,1.86.38.13-.68.15-.78.21-.55,9.21-24h0l.74-1.92h0l2.94-7.69a2.31,2.31,0,1,1,.48.15l-.26-.07-2.82,7.35a2.27,2.27,0,0,1,1.66-.3,2.3,2.3,0,1,1-.91,4.51l-.23-.06-2.64,7.22a2.26,2.26,0,0,1,1.46-.18,2.3,2.3,0,1,1-.91,4.5l-.19,0-4,11.51-.2.56-.13.77-.13.68,1.42.29L113.62,50a5.16,5.16,0,0,1,6.07-4l.24,0,.63-3.09,2.8.57a1.74,1.74,0,0,0,1.39,1.62l.25,0a1.74,1.74,0,0,0,2-1.36l.42-2.1a1.75,1.75,0,0,0-1.35-2.06l-.25,0a1.74,1.74,0,0,0-1.78.71l-2.89-.58,1.68-8.29,2.81.56a1.73,1.73,0,0,0,1.39,1.63l.24.05a1.74,1.74,0,0,0,2.05-1.36l.43-2.11a1.74,1.74,0,0,0-1.36-2.05l-.25,0a1.74,1.74,0,0,0-1.77.72l-2.89-.59L125.2,20Z"/><path d="M116.28,29l-9.07,23.67-.22.56-.15.77-.13.68,2.1.42.13-.68.15-.78.2-.55,4.64-12.68.9-2.46,2.75-7.49A2.27,2.27,0,0,1,116.28,29Z"/><path d="M102.21,53.73l2.19.45.14-.68.16-.79,0-.58.73-25.44a2.33,2.33,0,0,1-1.82.92l-.37,8-.11,2.53-.61,13.55,0,.56Z"/><polygon points="105.52 24.43 105.45 26.68 105.45 26.68 105.52 24.43"/><path d="M34.36,46.33l-.27,1.34-2-.41L31.5,50l2.56.52-.28,1.34-4-.81,1.9-9.4,4,.81-.28,1.34-2.55-.51-.53,2.62Z"/><path d="M36.86,43.23a2.52,2.52,0,0,1,3.25.66,2.64,2.64,0,0,1,.2,1.87l-.06.29-1.4-.28.08-.39a1.09,1.09,0,0,0,0-.74.67.67,0,0,0-.5-.34.71.71,0,0,0-.6.11,1.17,1.17,0,0,0-.33.67,1.79,1.79,0,0,0,.11,1.1,7,7,0,0,0,.74,1.2,10.85,10.85,0,0,1,.67,1,3.29,3.29,0,0,1,.37,1,3.1,3.1,0,0,1,0,1.25,2.5,2.5,0,0,1-.92,1.63,2.15,2.15,0,0,1-1.76.28,2.17,2.17,0,0,1-1.52-.94,2.54,2.54,0,0,1-.2-1.87l.11-.57,1.4.28-.14.67c-.12.61.07,1,.58,1.07s.83-.15.95-.76a1.78,1.78,0,0,0-.1-1.1,6.56,6.56,0,0,0-.75-1.2c-.28-.39-.5-.73-.67-1a3.58,3.58,0,0,1-.37-1,3.1,3.1,0,0,1,0-1.25A2.63,2.63,0,0,1,36.86,43.23Z"/><path d="M45.76,44.51l-.27,1.34-1.55-.31L42.31,53.6l-1.48-.3,1.63-8.06-1.54-.31.27-1.34Z"/><path d="M48.74,45.11a2.21,2.21,0,0,1,1.53.93,2.5,2.5,0,0,1,.2,1.84l-1,4.76a2.56,2.56,0,0,1-.9,1.62,2.19,2.19,0,0,1-1.77.25L44.5,54l1.9-9.4ZM46.25,53l.83.16a.71.71,0,0,0,.6-.1A1,1,0,0,0,48,52.4l1-4.88a1.08,1.08,0,0,0-.06-.74.73.73,0,0,0-.51-.33l-.83-.17Z"/><text class="cls-1" transform="matrix(0.65, 0.13, -0.2, 0.98, 156.44, 76.83)">2019</text><text class="cls-2" transform="translate(10.1 86.56) rotate(11.44) scale(0.74 1)">MAKUSTIK MUSIC</text></g><text class="cls-3" transform="translate(187.36 137.19)">M<tspan class="cls-4" x="55.07" y="0">akustik Music</tspan></text><text class="cls-5" transform="translate(531.37 164.84)">es<tspan class="cls-6" x="26.47" y="0">t</tspan><tspan class="cls-7" x="34.72" y="0">d</tspan><tspan class="cls-8" x="49.56" y="0">.</tspan><tspan x="54.91" y="0"> </tspan><tspan class="cls-9" x="59.92" y="0">2</tspan><tspan class="cls-10" x="74.96" y="0">0</tspan><tspan class="cls-11" x="91.11" y="0">1</tspan><tspan class="cls-7" x="102.98" y="0">9</tspan></text></g></g></svg>